# xmcd
# 
# Track frame offsets:
#   150
#   15970
#   29110
#   43497
#   55185
#   69467
#   87250
#   100790
#   113785
#   126620
#   141715
#   154995
#   168527
#   186385
#   198197
#   208805
#   220202
#   232455
#   244355
# 
# Disc length: 3416 seconds
# 
# Revision: 5
# Processed by: cddbd v1.5.2PL0 Copyright (c) Steve Scherf et al.
# Submitted via: Synapstar 1.0 
# 
DISCID=330d5613
DTITLE=Various Artist - SAVA 15
DYEAR=1978
DGENRE=Country
TTITLE0=Hank Williams - Cold Cold Heart
TTITLE1=Hank Williams - Half As Much
TTITLE2=Hank Williams - Hey Good Lookin'
TTITLE3=Hank Williams - I Can't Help It
TTITLE4=Hank Williams - I'm So Lonesome I Could Cry
TTITLE5=Hank Williams - A Mansion On The Hill
TTITLE6=Hank Williams - Move It On Over
TTITLE7=Hank Williams - Take These Chains From My Heart
TTITLE8=Hank Williams - You Win Again
TTITLE9=Merle Haggard - Ramblin' Fever
TTITLE10=Merle Haggard - Swinging Doors
TTITLE11=Bob Willis - Time Changes Everything
TTITLE12=Bob Willis - Faded Love
TTITLE13=Willie Nelson - Blue Suede Shoes
TTITLE14=Carl Smith - Deep Water
TTITLE15=Hank Locklin' - Please Help Me, I'm Falling
TTITLE16=Hank Locklin' - Send Me The Pillow You Dream On
TTITLE17=Hank Snow - A Fool Such As I
TTITLE18=Hank Snow - I've Been Everywhere
EXTD=MediaType: Karaoke CD+G Producer: Other
EXTT0=
EXTT1=
EXTT2=
EXTT3=
EXTT4=
EXTT5=
EXTT6=
EXTT7=
EXTT8=
EXTT9=
EXTT10=
EXTT11=
EXTT12=
EXTT13=
EXTT14=
EXTT15=
EXTT16=
EXTT17=
EXTT18=
PLAYORDER=
